<?xml version="1.0" encoding="UTF-8" standalone="no"?>
<svg width="153px" height="42px" viewBox="0 0 153 42" version="1.1" xmlns="http://www.w3.org/2000/svg" xmlns:xlink="http://www.w3.org/1999/xlink" xmlns:sketch="http://www.bohemiancoding.com/sketch/ns">
    <!-- Generator: Sketch 3.4 (15575) - http://www.bohemiancoding.com/sketch -->
    <title>Group + Group</title>
    <desc>Created with Sketch.</desc>
    <defs></defs>
    <g id="Page-1" stroke="none" stroke-width="1" fill="none" fill-rule="evenodd" sketch:type="MSPage">
        <g id="Group-+-Group" sketch:type="MSLayerGroup">
            <g id="Group" sketch:type="MSShapeGroup">
                <path d="M18.2494027,0.335478431 L17.1335973,0.412066667 L16.0180671,0.546576471 L14.9212483,0.736811765 L13.8351611,0.980027451 L12.7661342,1.27704706 L11.7196711,1.63473333 L10.7029262,2.04045882 L9.71177181,2.49504706 L8.75528859,3.0028902 L7.8395302,3.55767451 L6.9545906,4.1539098 L6.95431544,4.15363529 L6.11505369,4.79626275 L5.32367114,5.48061569 L5.32339597,5.48034118 L4.58044295,6.20422353 L3.88619463,6.96269412 L3.8864698,6.96296863 L3.24863087,7.75877255 L2.665,8.58696863 L2.13585235,9.44316471 L2.13475168,9.44261569 L1.6647651,10.3177529 L1.25751678,11.2173216 L0.915483221,12.1361059 L0.917134228,12.1303412 L0.634261745,13.0612039 L0.633986577,13.0612039 L0.307087248,14.0137529 L0.307087248,14.0170471 L0.307087248,14.9767333 L0.307087248,14.9772824 L0.197020134,15.9424588 L0.168677852,16.9065373 L0.209127517,17.8706157 L0.206651007,17.8708902 L0.315342282,18.8333216 L0.315067114,18.8333216 L0.491724832,19.7897137 L0.737449664,20.7312824 L0.73552349,20.6865373 L1.04068456,21.5710078 L1.04151007,21.5710078 L1.41051007,22.5282235 L1.4110604,22.5504588 L1.84610067,23.4596353 L2.33369799,24.3136353 L2.88788591,25.1396353 L2.88761074,25.1396353 L3.49518121,25.9711255 L4.15943624,26.7600667 L4.15943624,26.7652824 L4.82451678,27.511949 L5.53527517,28.2251255 L5.53527517,28.2256745 L6.39765101,28.896851 L7.27736242,29.5208118 L8.1837651,30.1057922 L9.12373826,30.633949 L10.097557,31.123949 L10.9921275,31.5132039 L10.4882953,30.8016745 L10.4882953,30.7994784 L10.0469262,29.9548118 L9.66279195,29.0917529 L9.66279195,29.0892824 L9.11245638,28.2075569 L9.11245638,28.2056353 L8.83756376,27.3030471 L8.83756376,27.3011255 L8.56239597,26.3774 L8.56239597,26.3801451 L8.3887651,25.4448902 L8.28695302,24.5121059 L8.28695302,24.5077137 L8.01178523,23.5636745 L8.01178523,23.5612039 L8.11992617,22.6100275 L8.28695302,21.6615961 L8.28695302,21.6591255 L8.28695302,20.7194784 L8.28695302,20.7172824 L8.56239597,19.7801059 L8.56239597,19.7825765 L8.77785235,18.8635176 L8.7902349,18.858851 L9.11245638,17.9494 L9.11245638,17.9474784 L9.4616443,17.0638314 L9.88925503,16.1908902 L9.94181208,16.1886941 L10.4882953,15.344851 L10.4882953,15.3421059 L10.9855235,14.5279098 L10.9593826,14.5257137 L11.557047,13.7395176 L12.2141477,12.9807725 L12.9260067,12.2637529 L12.926557,12.2615569 L13.6868456,11.5840667 L13.6887718,11.5815961 L14.4961141,10.9392431 L14.4983154,10.9373216 L15.3510604,10.3386157 L16.2437047,9.78163529 L17.1751477,9.27818431 L18.1390604,8.8186549 L19.1299396,8.41045882 L20.1530134,8.05112549 L21.190396,7.74916471 L22.2558456,7.50128235 L23.3301007,7.30638039 L24.4197651,7.16720392 L25.5193356,7.08622353 L26.613953,7.06041961 L27.7157248,7.08869412 L28.8081409,7.17434118 L29.900557,7.31818431 L30.9726107,7.51500784 L32.0372349,7.76810588 L33.0768188,8.0766549 L34.0932886,8.43598824 L35.0871946,8.84692941 L36.0461544,9.28367451 L36.9729195,9.76708627 L36.9751208,9.76708627 L37.8628121,10.3512431 L38.6929933,10.9477529 L40.7512483,8.91967451 L33.8907651,2.22794902 L31.7221678,4.37379216 L31.7015302,4.36061569 L30.8295235,3.74351765 L29.9258725,3.17473333 L28.9806711,2.65563529 L28.0007987,2.18210588 L26.9934094,1.75963529 L25.9538255,1.39124314 L24.898557,1.07061569 L23.8149463,0.809007843 L22.7200537,0.602027451 L21.6116779,0.44885098 L20.4939463,0.353870588 L19.3690604,0.316811765 L18.2494027,0.335478431 Z" id="Fill-1" fill="#8C1F2E"></path>
                <path d="M19.3690329,0.252219608 L18.2468987,0.270337255 L17.1264154,0.34692549 L16.0095094,0.481709804 L14.9099389,0.671670588 L13.819449,0.915435294 L12.7479456,1.21465098 L11.6968047,1.57425882 L10.6775832,1.97998431 L9.68202617,2.43457255 L8.72279128,2.94543529 L7.80483154,3.50186667 L6.91714027,4.09782745 L6.07375101,4.74567059 L5.28209329,5.42947451 L5.28016711,5.4319451 L4.53501275,6.15802353 L3.83773758,6.91896471 L3.14541544,7.71943529 L2.50840201,8.54982745 L2.50840201,8.55202353 L2.0301604,9.40574902 L1.54889195,10.2850039 L1.13283826,11.1900627 L1.13283826,11.1919843 L0.828502685,12.1154353 L0.582227517,13.0550824 L0.582227517,13.0594745 L0.460878523,13.5653961 L0.63395906,13.0611216 L0.634234228,13.0611216 L0.917106711,12.1302588 L0.915455705,12.1330039 L1.25748926,11.2158667 L1.66473758,10.3165725 L2.13472416,9.44198431 L2.1361,9.44308235 L2.66497248,8.58688627 L3.24860336,7.75896471 L3.88644228,6.96316078 L3.88616711,6.96288627 L4.58041544,6.20414118 L5.32336846,5.48053333 L5.32364362,5.48080784 L6.11502617,4.7964549 L6.95428792,4.15355294 L6.95456309,4.15410196 L7.83950268,3.55759216 L8.75526107,3.00308235 L9.7117443,2.49496471 L10.7028987,2.04037647 L11.7196436,1.63465098 L12.7661067,1.27696471 L13.8351336,0.979945098 L14.9212208,0.737003922 L16.0180396,0.546494118 L17.1335698,0.411984314 L18.2493752,0.335396078 L19.3690329,0.317003922 L20.4939188,0.353788235 L21.6116503,0.448768627 L22.7200262,0.601945098 L23.8149188,0.8092 L24.8985295,1.07080784 L25.953798,1.39116078 L26.9933819,1.75982745 L28.0007711,2.18229804 L28.9806436,2.65555294 L29.925845,3.17465098 L30.829496,3.74343529 L31.7015027,4.36053333 L31.7221403,4.37398431 L33.8907376,2.22786667 L40.7512208,8.92590588 L38.6929658,10.9479451 L37.8627846,10.3511608 L36.9750933,9.76727843 L36.9728919,9.76727843 L36.0461268,9.28359216 L35.0871671,8.83449412 L34.0932611,8.42986667 L33.0767913,8.07355294 L32.0372074,7.76637647 L30.9725832,7.51437647 L29.9005295,7.31755294 L28.8081134,7.17398431 L27.7159725,7.08833725 L26.6139255,7.06033725 L25.5193081,7.08614118 L24.4197376,7.16712157 L23.3300732,7.30657255 L22.2558181,7.5012 L21.1903685,7.74908235 L20.1529859,8.05104314 L19.1301872,8.41065098 L18.1390329,8.81884706 L17.1751201,9.27837647 L16.2436772,9.78182745 L15.3510329,10.3385333 L14.4980128,10.9372392 L14.4955362,10.9391608 L13.6884691,11.5815137 L13.6862678,11.5839843 L12.9248785,12.2614745 L12.922402,12.2636706 L12.2069658,12.9806902 L11.5427107,13.7394353 L10.9307376,14.5259059 L10.985496,14.528102 L10.775543,14.8720627 L10.983845,14.5657098 L10.9830195,14.5654353 L11.5911403,13.7836314 L12.2534691,13.0265333 L12.9689054,12.3122588 L13.770194,11.6328471 L14.6157846,10.9924157 L14.6157846,10.9929647 L15.428355,10.3942588 L16.2959591,9.83947451 L17.2150195,9.33904314 L18.1690262,8.87923922 L19.1552275,8.47049412 L20.1749993,8.11363137 L21.2074289,7.81441569 L22.2698517,7.56625882 L23.341355,7.37108235 L24.4266168,7.2324549 L25.5215094,7.1512 L26.6139255,7.12567059 L27.7132208,7.15339608 L28.8012342,7.23876863 L29.8886973,7.38288627 L30.9582745,7.58025882 L32.0209725,7.83308235 L33.0558785,8.13888627 L34.0704221,8.49657255 L35.0613013,8.90696471 L36.0161336,9.36621961 L36.9406973,9.87186667 L37.8261872,10.4313176 L38.6794826,11.0300235 L38.6995698,11.043749 L40.843402,8.92535686 L40.8205631,8.90284706 L33.8907376,2.13535686 L31.7152611,4.29080784 L30.8666436,3.68743529 L29.9602409,3.11947451 L29.0106369,2.59708235 L28.0285631,2.12163137 L27.0162208,1.69943529 L25.9747107,1.32802353 L24.9142141,1.00602353 L23.8286772,0.743592157 L22.7318584,0.537160784 L21.6185295,0.383984314 L20.4966705,0.288729412 L19.3690329,0.252219608 Z M0.307059732,14.0139451 L0.307059732,14.0199843 L0.267985906,14.4473961 L0.355489262,14.0059843 L0.460878523,13.5653961 L0.307059732,14.0139451 Z M0.164797987,14.9689647 L0.0318919463,15.9388078 L0.0318919463,15.9407294 L-2.75167785e-05,16.908102 L0.0318919463,17.8779451 L0.0318919463,17.8801412 L0.307059732,18.8450431 L0.307059732,18.8428471 L0.307059732,19.8033569 L0.307059732,19.8055529 L0.551133557,20.7495922 L0.857395302,21.682102 L0.857395302,21.6845725 L1.40800604,22.5989647 L1.40800604,22.6011608 L1.81442886,23.4966118 L2.29267047,24.3709255 L2.83997919,25.2155922 L3.44589866,26.0322588 L4.10602617,26.8113176 L4.10795235,26.8135137 L4.8250396,27.5607294 L4.82256309,27.5585333 L5.58835503,28.2752784 L6.40477785,28.9483765 L6.40670403,28.9505725 L7.26467718,29.5767294 L8.16172416,30.1608863 L9.10004631,30.6928863 L10.0727644,31.1845333 L11.0760262,31.6201804 L11.1860933,31.6693176 L10.5466034,30.7645333 L10.5455027,30.7650824 L10.0389188,29.9231608 L10.040845,29.9220627 L9.98553624,29.816651 L10.0468987,29.9547294 L10.4882678,30.7996706 L10.4882678,30.8018667 L10.9934758,31.5133961 L10.0997309,31.1238667 L9.12948926,30.6341412 L8.19584497,30.1057098 L7.3012745,29.5210039 L6.44577785,28.8973176 L5.63183154,28.2261412 L5.63155638,28.2264157 L4.87016711,27.5140627 L4.15500604,26.7701412 L4.15528121,26.7698667 L3.49322752,25.9710431 L2.88758322,25.1395529 L2.88785839,25.1395529 L2.33367047,24.3193176 L1.84607315,23.4612 L1.41103289,22.5682196 L1.41048255,22.5256706 L1.04148255,21.5709255 L1.04065705,21.5709255 L0.735495973,20.6864549 L0.73714698,20.7084157 L0.487844966,19.778102 L0.307059732,18.8274745 L0.307059732,17.8702588 L0.209925503,16.9059059 L0.202220805,15.942651 L0.27871745,14.9780235 L0.219556376,14.9780235 L0.267985906,14.4473961 L0.164797987,14.9689647 Z M10.429657,15.3801804 L10.4285564,15.3804549 L10.1181671,15.9088863 L10.4882678,15.3447686 L10.4882678,15.3420235 L10.775543,14.8720627 L10.429657,15.3801804 Z M9.9346302,16.1886118 L9.90353624,16.1910824 L9.47565034,17.063749 L9.11242886,17.9476706 L9.11242886,17.9495922 L8.77177114,18.8590431 L8.79185839,18.8637098 L8.56236846,19.7824941 L8.56236846,19.7800235 L8.2869255,20.7172 L8.2869255,20.7196706 L8.2869255,21.6590431 L8.2869255,21.6615137 L8.11989866,22.6099451 L8.01175772,23.5611216 L8.01175772,23.5635922 L8.2869255,24.5076314 L8.2869255,24.5120235 L8.2869255,24.4930824 L8.20134832,23.5550824 L8.21428121,22.6124157 L8.2869255,21.6678275 L8.2869255,21.668102 L8.3851604,20.7309255 L8.37360336,20.7309255 L8.55851611,19.8008863 L8.80891879,18.8799059 L8.80561678,18.8933569 L9.1154557,18.002298 L9.11600604,18.002298 L9.49353624,17.104651 L9.9346302,16.2262196 L9.93407987,16.2223765 L10.1181671,15.9088863 L9.9346302,16.1886118 Z M0.307059732,17.8702588 L0.307059732,17.8694353 L0.307059732,17.8702588 Z M8.2869255,24.4930824 L8.2869255,24.4851216 L8.2869255,24.4930824 Z M8.2869255,25.3701412 L8.46468389,25.854651 L8.38873758,25.4448078 L8.2869255,24.5120235 L8.2869255,25.3701412 Z M8.2869255,25.4019843 L8.2869255,25.3701412 L8.2869255,25.4019843 Z M8.56236846,26.3800627 L8.56236846,26.3773176 L8.83753624,27.3013176 L8.83753624,27.3032392 L9.11242886,28.2055529 L9.11242886,28.207749 L9.47069732,28.7814745 L9.20130805,28.1591608 L9.20048255,28.1591608 L8.86918054,27.3359059 L8.87000604,27.3359059 L8.6055698,26.2375922 L8.60529463,26.2375922 L8.46468389,25.854651 L8.56236846,26.3800627 Z M9.58681812,29.0496706 L9.58791879,29.0595529 L9.98553624,29.816651 L9.66276443,29.0919451 L9.66276443,29.0894745 L9.47069732,28.7814745 L9.58681812,29.0496706 Z" id="Fill-2" fill="#8E2333"></path>
                <path d="M29.7500953,30.3604275 L29.7500953,21.8454078 L19.2835383,21.8454078 L29.7500953,30.3604275 Z" id="Fill-3" fill="#8C1F2E"></path>
                <path d="M29.7500953,30.3604275 L19.2835383,21.8454078 L29.7500953,21.8454078 L29.7500953,30.3604275 Z M29.7500953,21.570898 L19.1000013,21.570898 L19.1365987,21.6669765 L29.7500953,30.4998784 L29.7500953,21.570898 Z" id="Fill-4" fill="#8E2333"></path>
                <path d="M32.7768584,32.0659843 L32.7933685,32.1387294 L31.8715564,32.8258275 L31.869355,32.8258275 L30.8801268,33.3399843 L29.8589792,33.8398667 L28.8037107,34.2972 L27.725053,34.7232392 L26.616402,35.0990431 L25.4846369,35.4174745 L24.3459926,35.6928078 L23.1850597,35.907749 L22.0120195,36.0653176 L20.8315497,36.1693569 L19.6453013,36.2228863 L18.4609792,36.2160235 L17.2785832,36.1509647 L16.0961872,36.0373176 L14.9278248,35.8610824 L13.7710195,35.6340627 L12.6282477,35.3504941 L11.5080396,35.012298 L10.406543,34.6219451 L9.33008658,34.1816314 L8.24097248,33.6897098 L7.18625436,33.1538667 L7.18625436,33.1519451 L6.37643557,32.6394353 L6.90861007,33.3506902 L6.91824094,33.3718275 L7.57451611,34.1983765 L7.57726779,34.1983765 L8.28224765,34.9488863 L9.0395094,35.6807294 L9.88344899,36.3856706 L10.7634356,37.0466902 L10.7634356,37.0461412 L11.6315899,37.6821804 L11.615355,37.6830039 L12.5440463,38.2690824 L13.5195161,38.8167294 L14.5324087,39.3199059 L15.5821738,39.7747686 L16.6558785,40.1832392 L17.7664557,40.542298 L18.8976705,40.8557882 L20.0525497,41.1201412 L21.2181604,41.3293176 L22.4071604,41.4912784 L23.6077174,41.6024549 L24.8110262,41.6559843 L26.0225899,41.660651 L27.2352544,41.6120627 L28.4492946,41.5143373 L29.6548047,41.3617098 L30.8526101,41.1599451 L32.0369322,40.8997098 L33.2052946,40.5958275 L34.360449,40.2452784 L35.4897376,39.841749 L36.5931604,39.3923765 L37.6696168,38.8974353 L38.6918651,38.3599451 L39.656053,37.7864941 L39.656053,24.8510431 L32.7768584,18.7152 L32.7768584,32.0659843 Z" id="Fill-5" fill="#8C1F2E"></path>
                <path d="M32.7768584,18.7151725 L39.656053,24.8510157 L39.656053,37.7864667 L38.6918651,38.3599176 L37.6561336,38.8974078 L36.5865564,39.392349 L35.4861604,39.8417216 L34.3585228,40.245251 L33.2044691,40.5958 L32.0363819,40.8996824 L30.8523349,41.1599176 L29.6545295,41.3616824 L28.4492946,41.5143098 L27.2352544,41.6120353 L26.0225899,41.6606235 L24.8110262,41.6559569 L23.6077174,41.6024275 L22.4071604,41.491251 L21.2181604,41.3292902 L20.0525497,41.1201137 L18.8973953,40.8557608 L17.7661805,40.5422706 L16.6556034,40.1834863 L15.5813483,39.7747412 L14.5302074,39.3198784 L13.5159389,38.816702 L12.5363416,38.2690549 L11.5993953,37.683251 L11.6315899,37.6821529 L10.7634356,37.0461137 L10.7634356,37.0466627 L9.88372416,36.380702 L9.05601946,35.6708196 L8.29132819,34.9488588 L7.58359664,34.198349 L7.58194564,34.198349 L6.91108658,33.3514863 L6.91108658,33.3506627 L6.3676302,32.6394078 L7.18625436,33.1519176 L7.18625436,33.1538392 L8.24097248,33.6896824 L9.30972416,34.1816039 L10.3963617,34.6221922 L11.5030866,35.0122706 L12.625496,35.3507412 L13.7699188,35.6340353 L14.9272745,35.8610549 L16.0961872,36.0375647 L17.2783081,36.1509373 L18.460704,36.2159961 L19.6453013,36.2231333 L20.8315497,36.1693294 L22.0120195,36.0650157 L23.1850597,35.9071725 L24.3459926,35.6916824 L25.4846369,35.4158 L26.616402,35.0951725 L27.725053,34.7149765 L28.8037107,34.281251 L29.8589792,33.8082706 L30.8801268,33.3399569 L31.869355,32.8260745 L31.8715564,32.8260745 L32.7933685,32.138702 L32.7768584,32.0659569 L32.7768584,32.028898 L31.951355,32.6435255 L31.951355,32.6446235 L30.9084691,33.218898 L29.8581537,33.7476039 L28.7929792,34.2214078 L27.7090933,34.6548588 L26.5990664,35.0328588 L25.4703282,35.3507412 L24.3333349,35.6271725 L23.1737779,35.8426627 L22.0051403,36.0005059 L20.8274221,36.1045451 L19.6425497,36.158349 L18.4631805,36.1509373 L17.2832611,36.0864275 L16.1036168,35.9722314 L14.939657,35.7957216 L13.785053,35.568702 L12.6444826,35.2854078 L11.5286772,34.9494078 L10.4293819,34.5620745 L9.35540201,34.1214863 L8.31114027,33.6295647 L7.29934832,33.0931725 L7.29797248,33.0953686 L6.31699933,32.504349 L6.27352282,32.5510157 L6.87366376,33.3879961 L7.52883826,34.1997216 L7.53158993,34.2027412 L8.23519396,34.9749373 L8.99630805,35.7194078 L9.80860336,36.4295647 L10.6618987,37.0999176 L11.5636235,37.7381529 L12.504147,38.3247804 L13.4859456,38.8746235 L14.5026906,39.3805451 L15.5560329,39.8351333 L16.6344154,40.245251 L17.7477443,40.6078784 L18.8814356,40.9199961 L20.0409926,41.1854471 L21.2066034,41.3938 L22.4002812,41.5563098 L23.6035899,41.6677608 L24.8085497,41.7210157 L26.0250664,41.7254078 L27.2391067,41.6768196 L28.456449,41.5793686 L29.6636101,41.4259176 L30.8638919,41.2244275 L32.0528919,40.9647412 L33.2218047,40.6608588 L34.3808114,40.3083882 L35.5123013,39.9021137 L36.6190262,39.4521922 L37.6974087,38.9580745 L38.7488248,38.4172902 L39.6995295,37.8331333 L39.656053,37.8235255 L39.656053,24.8230157 L32.7768584,18.5691333 L32.7768584,18.7151725 Z M32.7768584,32.028898 L32.7768584,18.7151725 L32.7768584,32.028898 Z M8.99658322,35.7196824 L8.99630805,35.7194078 L8.99438188,35.7177608 L8.99658322,35.7196824 Z" id="Fill-6" fill="#8E2333"></path>
            </g>
            <g id="Group" transform="translate(44.000000, 9.000000)" fill="#777777" sketch:type="MSShapeGroup">
                <path d="M28.1764174,12.762428 L31.0428972,5.966548 L33.8912104,12.762428 L28.1764174,12.762428 Z M28.9567583,0.722428 L20.7110184,20.322428 L24.9394477,20.322428 L26.6790437,16.402428 L35.4009705,16.402428 L37.0728543,20.322428 L41.3015588,20.322428 L33.0814174,0.722428 L28.9567583,0.722428 Z" id="Fill-7"></path>
                <path d="M48.4764288,0.722428 L44.3476409,0.722428 L44.3476409,20.322428 L54.5319843,20.322428 L54.5319843,16.962428 L48.4764288,16.962428 L48.4764288,0.722428 Z" id="Fill-8"></path>
                <path d="M57.2844545,20.3224 L61.4132424,20.3224 L61.4132424,0.7224 L57.2844545,0.7224 L57.2844545,20.3224 Z" id="Fill-9"></path>
                <path d="M69.9461258,0.722428 L65.8173379,0.722428 L65.8173379,20.322428 L75.7264288,20.322428 L75.7264288,16.962428 L69.9461258,16.962428 L69.9461258,0.722428 Z" id="Fill-10"></path>
                <path d="M79.0294591,20.322428 L90.5900652,20.322428 L90.5900652,16.682428 L82.8829944,16.682428 L82.8829944,11.642428 L90.5900652,11.642428 L90.5900652,8.002428 L82.8829944,8.002428 L82.8829944,4.362428 L90.5900652,4.362428 L90.5900652,0.722428 L79.0294591,0.722428 L79.0294591,20.322428 Z" id="Fill-11"></path>
                <path d="M104.627944,0.722428 L104.627944,13.001268 C104.627944,14.326508 104.550047,15.223348 104.352416,15.694028 C104.151757,16.165268 103.805765,16.553068 103.286088,16.853788 C102.766136,17.161228 102.154525,17.315508 101.439419,17.315508 C100.760921,17.315508 100.186194,17.178028 99.7050525,16.903908 C99.2244616,16.628668 98.8498429,16.266628 98.6425778,15.810508 C98.4331106,15.348788 98.2971359,14.570388 98.2971359,13.469988 L98.2971359,0.722428 L94.168348,0.722428 L94.168348,12.469268 C94.168348,14.830228 94.4730525,16.502948 94.9649288,17.492468 C95.4603833,18.483948 96.3092621,19.309948 97.4570652,19.972428 C98.6051434,20.630148 99.9673682,20.956908 101.520618,20.956908 C102.698148,20.956908 103.742732,20.786108 104.633174,20.440868 C105.523616,20.092828 106.316068,19.562788 106.997318,18.845988 C107.68077,18.128908 108.148699,17.383548 108.390095,16.614948 C108.62929,15.843548 108.756732,14.458948 108.756732,12.469268 L108.756732,0.722428 L104.627944,0.722428 Z" id="Fill-12"></path>
                <path d="M9.94107525,10.522428 L9.94107525,13.882428 L15.2355576,13.882428 C14.7340475,15.002428 14.0715146,15.944068 13.2496106,16.490628 C12.4312848,17.039428 11.4257874,17.334268 10.2292646,17.334268 C8.3933303,17.334268 6.84503485,16.679908 5.59346162,15.350188 C4.33968636,14.027748 3.71403737,12.411868 3.71403737,10.504508 C3.71403737,8.654268 4.3168404,7.090188 5.52437323,5.798268 C6.72997929,4.509148 8.22735303,3.864588 10.0175955,3.864588 C12.069603,3.864588 13.8664515,4.751908 15.4081409,6.524308 L17.8419237,3.905468 C16.7285273,2.599548 15.5944869,1.674148 14.432646,1.134588 C13.0569338,0.495908 11.5796535,0.180908 10.0016308,0.180908 C6.97880758,0.180908 4.5238303,1.333668 2.63972677,3.636108 C1.04986818,5.571748 0.253837879,7.847868 0.253837879,10.467268 C0.253837879,12.379108 0.686259596,14.158228 1.54422172,15.807428 C2.40493636,17.457188 3.57613586,18.729788 5.05286566,19.617388 C6.53234798,20.511708 8.21138838,20.956628 10.0979692,20.956628 C11.8606864,20.956628 13.3949439,20.550068 14.706247,19.731348 C16.013146,18.919628 17.0805753,17.736348 17.9041308,16.183748 C18.7279616,14.631708 19.1391889,13.038228 19.1391889,11.306988 L19.1141409,10.522428 L9.94107525,10.522428 Z" id="Fill-15"></path>
            </g>
        </g>
    </g>
</svg>